<svg width="40" height="40" viewBox="0 0 40 40" fill="none" xmlns="http://www.w3.org/2000/svg">
<rect width="40" height="40" rx="20" fill="white" fill-opacity="0.16"/>
<path d="M12.6934 20L9.68541 23.008L6.66675 20L9.67875 16.992L12.6934 20ZM20.0001 12.6893L25.1587 17.848L28.1667 14.8413L20.0001 6.66663L11.8294 14.8413L14.8374 17.848L20.0001 12.6893ZM30.3174 16.992L27.3147 20L30.3214 23.008L33.3334 20L30.3174 16.992ZM20.0001 27.3106L14.8454 22.152L11.8374 25.1586L20.0001 33.3333L28.1667 25.1586L25.1587 22.152L20.0001 27.3106ZM20.0001 23.008L23.0121 20L20.0001 16.992L16.9881 20L20.0001 23.008Z" fill="#D1D1D2"/>
</svg>
