<svg width="40" height="40" viewBox="0 0 40 40" fill="none" xmlns="http://www.w3.org/2000/svg">
<rect width="40" height="40" rx="20" fill="white" fill-opacity="0.16"/>
<path d="M25.8165 21.8109L21.9054 25.7432C21.5807 26.0832 21.5807 26.6154 21.9054 26.9554L24.8867 29.9563C25.3885 30.4589 26.2298 30.4589 26.7316 29.9563L35.8822 20.9091C36.3841 20.4065 36.3841 19.5786 35.8822 19.076L26.7316 10.0436C26.2298 9.54097 25.3885 9.54097 24.8867 10.0436L21.9054 13.0445C21.5807 13.3698 21.5807 13.9167 21.9054 14.2568L25.8165 18.189C26.8349 19.1499 26.8349 20.8056 25.8165 21.8109Z" fill="#A3A3A5"/>
<path d="M14.0799 21.8109L17.9523 25.7432C18.2738 26.0832 18.2738 26.6154 17.9523 26.9554L15.0005 29.9563C14.5037 30.4589 13.6707 30.4589 13.1739 29.9563L4.11384 20.9091C3.617 20.4065 3.617 19.5786 4.11384 19.076L13.1739 10.0436C13.6707 9.54097 14.5037 9.54097 15.0005 10.0436L17.9523 13.0445C18.2738 13.3698 18.2738 13.9167 17.9523 14.2568L14.0799 18.189C13.0716 19.1499 13.0716 20.8056 14.0799 21.8109Z" fill="#D1D1D2"/>
<path d="M15.1777 20.7414C14.7666 20.3303 14.7666 19.6698 15.1777 19.2587L19.2586 15.1778C19.6696 14.7667 20.3302 14.7667 20.7412 15.1778L24.8222 19.2587C25.2332 19.6698 25.2332 20.3303 24.8222 20.7414L20.7412 24.8223C20.3302 25.2333 19.6696 25.2333 19.2586 24.8223L15.1777 20.7414Z" fill="#D1D1D2"/>
</svg>
