<svg width="40" height="40" viewBox="0 0 40 40" fill="none" xmlns="http://www.w3.org/2000/svg">
<rect width="40" height="40" rx="20" fill="white" fill-opacity="0.16"/>
<path d="M28.7667 28.8139C28.7667 28.8139 29.2157 28.7177 29.36 28.7017C29.2318 28.8781 29.1035 29.0224 28.9592 29.1988C27.58 30.8185 25.7998 32.0373 23.7792 32.7269C23.25 32.9033 22.7047 33.0477 22.1594 33.1439C22.6406 32.5024 23.1858 31.9091 23.7792 31.3799C24.4527 30.7865 25.1904 30.2733 25.9923 29.8563C26.4253 29.6318 26.9224 29.4073 27.0507 29.3592C27.596 29.1347 28.1733 28.9422 28.7667 28.8139Z" fill="#D1D1D2"/>
<path d="M31.2043 25.0939C31.06 25.5589 30.8836 26.0241 30.6912 26.4571C30.4185 27.0665 30.0817 27.6438 29.7129 28.2051L29.4563 28.2371C28.5422 28.3815 27.6441 28.6381 26.7781 29.0069C26.0725 29.3116 25.3989 29.6805 24.7575 30.0975C23.5226 30.9314 22.4642 31.9898 21.6302 33.2247C20.7322 33.337 19.834 33.369 18.936 33.2888C18.503 33.2408 18.07 33.1766 17.637 33.0964C19.1445 30.8672 21.133 28.9909 23.4424 27.6117C24.7414 26.8259 26.1367 26.2165 27.58 25.7995C28.7507 25.4307 29.9695 25.2061 31.2043 25.0939Z" fill="#D1D1D2"/>
<path d="M11.3344 10.9808C12.9862 7.91767 16.4342 6.65074 16.4182 6.66678C16.4021 6.68281 16.3701 6.73092 16.3701 6.73092C14.1088 9.89023 16.4663 12.5845 16.4823 12.6005C13.291 12.8411 11.1099 14.2844 10.4684 14.7816L10.4524 14.7976C10.4524 14.7976 10.4524 14.7655 10.4524 14.7334C10.4203 14.3646 10.4684 12.5364 11.3344 10.9808Z" fill="#D1D1D2"/>
<path d="M14.3333 20.4427C15.52 21.004 17.1077 21.1965 18.6312 21.2606C19.3529 21.2927 24.8536 21.2767 28.494 21.2767H31.7175C31.7175 21.437 31.7175 21.4691 31.7175 21.6134C31.7175 22.6077 31.5892 23.602 31.3486 24.5643L31.3166 24.6605C30.2742 24.7407 29.2478 24.901 28.2374 25.1576C27.8205 25.2699 27.0507 25.4784 26.4894 25.6869C25.5432 26.0236 24.6291 26.4406 23.747 26.9217C21.1009 28.3811 18.8397 30.4659 17.1558 32.9998C16.9473 32.9516 16.7389 32.8875 16.5303 32.8234C15.0549 32.3583 13.6918 31.6206 12.5051 30.6423C10.6287 29.0867 9.29763 26.9858 8.67219 24.6284C8.43163 23.7143 8.30334 22.7841 8.2873 21.854C8.25522 20.7635 8.38352 19.6569 8.65615 18.5985C8.99293 17.2353 9.60234 15.9363 10.4523 14.8137C10.4523 14.9741 10.7891 18.6305 14.3333 20.4427Z" fill="#D1D1D2"/>
</svg>
