<svg width="40" height="40" viewBox="0 0 40 40" fill="none" xmlns="http://www.w3.org/2000/svg">
<rect width="40" height="40" rx="20" fill="white" fill-opacity="0.16"/>
<path d="M22.684 20.0133H30.9157L26.4802 30.8558C25.8674 32.361 24.4022 33.3333 22.7772 33.3333H14.5454L18.981 22.4908C19.5937 20.9857 21.0589 20.0133 22.684 20.0133Z" fill="#D1D1D2"/>
<path d="M30.9156 20.0133L25.9339 26.3536C25.1746 27.366 24.0291 28.0187 22.6971 28.0187H16.7297L18.9941 22.5042C19.6069 20.999 21.0721 20.0266 22.6971 20.0266L30.9156 20.0133Z" fill="#A3A3A5"/>
<path d="M19.9532 13.34H28.185L23.7495 24.1825C23.1367 25.6876 21.6715 26.66 20.0465 26.66H11.8147L16.2503 15.8175C16.863 14.3256 18.3282 13.34 19.9532 13.34Z" fill="#D1D1D2"/>
<path d="M28.1851 13.34L23.2034 19.6803C22.4442 20.6926 21.2986 21.3453 19.9666 21.3453H13.9993L16.2637 15.8308C16.8764 14.3257 18.3416 13.3533 19.9666 13.3533L28.1851 13.34Z" fill="#A3A3A5"/>
<path d="M17.2228 6.66663H25.4546L21.019 17.5091C20.4063 19.0143 18.9411 19.9867 17.316 19.9867H9.08423L13.5198 9.14415C14.1458 7.65231 15.5977 6.66663 17.2228 6.66663Z" fill="#D1D1D2"/>
</svg>
